<?xml version="1.0" standalone="no"?>
<!DOCTYPE svg PUBLIC "-//W3C//DTD SVG 20010904//EN"
 "http://www.w3.org/TR/2001/REC-SVG-20010904/DTD/svg10.dtd">
<svg version="1.0" xmlns="http://www.w3.org/2000/svg"
 width="1024.000000pt" height="1024.000000pt" viewBox="0 0 1024.000000 1024.000000"
 preserveAspectRatio="xMidYMid meet">

<g transform="translate(0.000000,1024.000000) scale(0.100000,-0.100000)"
fill="#000000" stroke="none">
<path d="M3989 6974 c-13 -14 -23 -27 -21 -30 6 -10 1 -25 -7 -20 -12 8 -86
-80 -148 -175 -166 -256 -253 -557 -253 -878 0 -117 10 -151 43 -151 l23 0 -4
130 c-8 246 36 466 141 701 32 70 109 201 148 251 17 21 28 42 24 48 -4 6 -10
8 -15 5 -4 -3 -6 5 -2 17 l5 22 9 -23 c7 -19 11 -21 23 -11 8 7 15 17 15 22 0
5 8 17 18 26 9 10 13 14 8 10 -19 -15 -27 -8 -16 12 6 11 8 20 4 20 -3 0 -1 7
6 15 12 14 35 11 26 -4 -3 -4 1 -8 9 -8 13 0 13 3 0 17 -8 9 -12 20 -8 23 3 4
4 7 1 7 -2 0 -15 -12 -29 -26z m-27 -72 c-7 -2 -12 -11 -12 -20 0 -14 -2 -14
-9 -3 -10 16 8 42 24 33 5 -3 4 -7 -3 -10z"/>
<path d="M6301 6844 c0 -11 3 -14 6 -6 3 7 2 16 -1 19 -3 4 -6 -2 -5 -13z"/>
<path d="M4416 6428 c3 -5 10 -6 15 -3 13 9 11 12 -6 12 -8 0 -12 -4 -9 -9z"/>
<path d="M4388 6398 c-33 -50 -58 -109 -52 -120 4 -7 3 -8 -4 -4 -7 4 -12 5
-12 1 0 -3 -9 -41 -20 -84 -17 -64 -42 -251 -34 -251 1 0 28 36 59 80 30 44
86 112 122 151 63 66 65 70 37 65 -16 -2 -33 -5 -37 -5 -5 -1 -6 -5 -2 -10 3
-6 -4 -9 -15 -8 -17 1 -18 3 -8 12 8 5 17 17 20 27 5 12 1 16 -17 13 -14 -1
-22 2 -19 6 3 5 1 9 -5 9 -6 0 -8 6 -5 14 3 8 1 17 -5 20 -6 4 -8 13 -4 21 3
8 0 15 -6 15 -5 0 -1 16 10 35 23 38 20 48 -3 13z m-11 -90 c0 -21 -1 -24 -4
-10 -2 12 -9 20 -14 17 -5 -3 -6 1 -3 9 10 26 20 18 21 -16z m8 -48 c3 -5 1
-10 -4 -10 -6 0 -11 5 -11 10 0 6 2 10 4 10 3 0 8 -4 11 -10z"/>
<path d="M5842 6318 c-39 -46 -111 -123 -161 -172 -50 -49 -91 -91 -91 -93 0
-3 78 -3 173 -1 193 6 238 17 304 72 48 42 86 110 112 204 l20 72 -144 0 -143
0 -70 -82z"/>
<path d="M4525 6270 c-3 -6 1 -7 9 -4 18 7 21 14 7 14 -6 0 -13 -4 -16 -10z"/>
<path d="M4584 6198 l-19 -23 23 19 c21 18 27 26 19 26 -2 0 -12 -10 -23 -22z"/>
<path d="M4544 6148 l-19 -23 23 19 c21 18 27 26 19 26 -2 0 -12 -10 -23 -22z"/>
<path d="M4519 6113 c-1 -5 -1 -12 0 -16 1 -5 -3 -6 -8 -3 -10 6 -184 -245
-176 -253 8 -7 243 95 264 115 3 2 -4 10 -14 17 -16 13 -16 14 -1 20 9 4 16
15 16 25 0 22 -23 46 -33 35 -7 -7 -11 12 -7 36 1 9 -4 12 -14 8 -9 -4 -16 -2
-16 2 0 5 6 12 13 14 7 3 5 6 -5 6 -10 1 -19 -2 -19 -6z m15 -49 c5 -14 4 -15
-9 -4 -17 14 -19 20 -6 20 5 0 12 -7 15 -16z"/>
<path d="M4652 5991 c-8 -4 -25 -7 -38 -5 -20 2 -23 0 -14 -12 10 -11 16 -11
41 2 16 8 29 17 29 19 0 7 -3 6 -18 -4z"/>
<path d="M4785 5943 c-391 -239 -841 -359 -1180 -314 -98 13 -258 51 -320 76
l-40 16 25 -20 c45 -36 172 -105 256 -138 166 -67 312 -93 522 -93 202 0 407
36 604 106 111 39 308 136 301 147 -4 6 -1 7 7 2 8 -5 18 -1 27 11 8 10 16 18
18 17 3 -2 5 0 4 5 0 4 -8 5 -17 4 -13 -3 -14 -1 -4 11 11 12 10 15 -5 13 -10
0 -18 6 -18 14 0 8 -9 19 -20 24 -13 5 -16 10 -7 13 6 3 12 9 12 14 0 6 -4 7
-10 4 -6 -3 -7 1 -4 9 3 9 10 16 15 16 20 0 7 18 -21 30 -16 7 -30 19 -30 27
0 8 -4 11 -10 8 -5 -3 -10 -1 -10 6 0 7 -7 4 -15 -7 -20 -26 -19 -4 1 24 9 13
14 25 13 26 -2 2 -44 -21 -94 -51z m57 4 c-7 -8 -9 -17 -5 -21 4 -4 0 -4 -9
-1 -15 6 -15 8 0 25 9 11 18 17 20 15 3 -3 0 -11 -6 -18z"/>
<path d="M5193 5745 c-100 -67 -232 -140 -343 -189 l-85 -38 -34 -122 c-98
-349 -170 -521 -260 -619 -89 -96 -177 -140 -308 -153 -64 -7 -65 -7 -39 -21
41 -21 153 -43 224 -43 97 0 208 26 302 72 69 33 101 57 170 127 105 105 150
173 212 316 48 110 253 713 246 720 -2 3 -40 -20 -85 -50z"/>
<path d="M5046 5778 c3 -4 11 -5 19 -1 21 7 19 12 -4 10 -11 0 -18 -5 -15 -9z"/>
<path d="M5309 5573 c-28 -87 -54 -164 -57 -170 -3 -10 16 -13 79 -12 46 1 76
3 66 6 -11 3 -16 11 -13 21 38 124 63 198 87 250 l28 62 -69 0 -68 0 -53 -157z"/>
<path d="M3630 5417 c0 -21 75 -197 116 -273 77 -143 233 -343 319 -409 28
-21 40 -24 65 -18 l30 8 -91 90 c-172 170 -256 303 -369 581 -9 22 -70 40 -70
21z"/>
<path d="M4510 4485 l-44 -11 60 -25 c299 -130 647 -161 979 -88 98 22 106 26
85 39 -16 10 -33 3 -25 -10 3 -5 -11 -7 -32 -5 -21 3 -33 2 -26 -3 7 -4 -5 -7
-28 -7 -21 0 -39 1 -39 2 0 5 85 26 97 24 6 -1 14 3 18 9 8 13 -16 13 -51 0
-57 -22 -287 -42 -408 -36 -144 7 -339 45 -455 89 -78 30 -91 32 -131 22z"/>
<path d="M5578 4423 c6 -2 18 -2 25 0 6 3 1 5 -13 5 -14 0 -19 -2 -12 -5z"/>
<path d="M5610 4400 c0 -5 5 -10 10 -10 6 0 10 5 10 10 0 6 -4 10 -10 10 -5 0
-10 -4 -10 -10z"/>
<path d="M3940 4069 c-38 -15 -60 -49 -60 -95 0 -95 123 -138 194 -68 86 86
-16 209 -134 163z"/>
<path d="M3180 3573 l0 -398 95 3 95 3 0 140 0 139 185 0 185 0 0 75 0 75
-185 0 -185 0 0 105 0 105 210 0 210 0 0 75 0 75 -305 0 -305 0 0 -397z"/>
<path d="M4531 3786 c-24 -8 -56 -27 -72 -42 -27 -26 -29 -27 -29 -7 0 49 -7
53 -96 53 l-84 0 0 -305 0 -305 94 0 95 0 3 194 c3 190 4 195 27 220 36 38 91
52 141 37 69 -20 74 -38 80 -261 l5 -195 93 -3 92 -3 0 209 c0 280 -19 340
-124 394 -52 27 -163 34 -225 14z"/>
<path d="M5202 3782 c-175 -63 -257 -259 -181 -432 57 -129 211 -204 367 -180
77 13 129 38 187 91 62 58 89 125 89 224 -1 134 -55 219 -177 282 -71 36 -206
43 -285 15z m198 -150 c53 -28 83 -92 77 -165 -8 -95 -60 -147 -147 -147 -94
0 -159 81 -147 182 15 120 118 182 217 130z"/>
<path d="M6623 3786 c-152 -50 -232 -168 -221 -327 10 -129 81 -226 197 -270
81 -30 224 -24 296 13 105 54 164 144 173 259 9 133 -56 247 -175 305 -46 23
-73 29 -142 31 -54 2 -102 -2 -128 -11z m177 -154 c54 -27 80 -74 80 -144 0
-109 -53 -168 -152 -168 -86 0 -141 65 -141 166 0 123 109 198 213 146z"/>
<path d="M3900 3485 l0 -305 90 0 90 0 0 305 0 305 -90 0 -90 0 0 -305z"/>
<path d="M5690 3781 c0 -5 56 -143 124 -307 l125 -299 94 -3 95 -3 127 298
c70 164 129 304 132 311 4 10 -15 12 -88 10 l-93 -3 -80 -197 c-44 -109 -83
-195 -87 -190 -4 4 -42 94 -84 200 l-77 192 -94 0 c-52 0 -94 -4 -94 -9z"/>
<path d="M3175 3006 c-24 -58 -27 -135 -8 -190 10 -27 24 -52 31 -54 11 -3 12
0 3 17 -7 11 -16 45 -21 74 -10 50 -1 110 25 170 4 10 3 17 -4 17 -7 0 -18
-15 -26 -34z"/>
<path d="M4440 2920 c0 -67 4 -110 10 -110 6 0 10 43 10 110 0 67 -4 110 -10
110 -6 0 -10 -43 -10 -110z"/>
<path d="M6530 2926 c0 -103 12 -145 24 -86 9 48 33 49 71 4 43 -51 54 -40 15
14 -16 23 -30 44 -30 47 0 3 12 17 28 30 15 13 24 26 20 30 -3 4 -26 -12 -51
-34 -24 -23 -47 -41 -51 -41 -3 0 -6 32 -6 70 0 40 -4 70 -10 70 -6 0 -10 -41
-10 -104z"/>
<path d="M6996 2993 c18 -51 17 -155 0 -198 -9 -20 -11 -35 -5 -35 19 0 41 75
41 135 0 59 -22 135 -40 135 -5 0 -4 -17 4 -37z"/>
<path d="M4673 3012 l-63 -3 0 -99 0 -100 70 0 c84 0 94 18 13 22 l-58 3 0 35
c0 35 1 35 50 41 l50 5 -50 5 c-48 4 -50 5 -53 37 l-3 32 55 0 c30 0 57 4 61
9 8 14 -4 16 -72 13z"/>
<path d="M3250 2916 c0 -91 15 -142 22 -74 3 32 5 33 57 38 59 6 81 25 81 70
0 43 -28 60 -98 60 l-62 0 0 -94z m133 52 c8 -12 7 -24 -1 -42 -10 -23 -18
-26 -62 -26 l-50 0 0 38 c0 21 3 42 7 46 14 14 96 2 106 -16z"/>
<path d="M5895 3000 c3 -5 19 -10 36 -10 l29 0 0 -91 c0 -68 3 -90 13 -87 8 3
13 33 15 91 l3 87 29 0 c17 0 30 5 30 10 0 6 -34 10 -81 10 -51 0 -78 -4 -74
-10z"/>
<path d="M3483 2960 c-47 -19 -57 -87 -18 -125 28 -28 62 -32 91 -10 18 14 16
15 -19 9 -29 -5 -43 -2 -57 11 -32 29 -24 35 45 35 76 0 83 13 36 61 -31 31
-42 33 -78 19z m58 -20 c38 -21 23 -40 -31 -40 -54 0 -62 10 -28 34 26 19 33
19 59 6z"/>
<path d="M3764 2960 c-23 -9 -38 -36 -28 -52 3 -5 26 -18 51 -29 39 -17 44
-21 32 -35 -10 -12 -23 -14 -51 -10 -41 7 -53 -8 -15 -18 40 -10 64 -6 83 15
23 25 11 49 -32 62 -65 21 -65 51 1 49 19 -1 35 3 35 8 0 6 -6 10 -14 10 -8 0
-20 2 -28 4 -7 3 -22 1 -34 -4z"/>
<path d="M4293 2960 c-32 -13 -29 -23 4 -17 33 6 63 -8 63 -28 0 -10 -10 -15
-31 -15 -43 0 -69 -17 -69 -45 0 -31 26 -45 78 -42 l42 1 0 63 c0 53 -3 64
-22 77 -25 18 -33 19 -65 6z m67 -93 c0 -20 -21 -37 -46 -37 -26 0 -38 14 -30
35 7 19 76 21 76 2z"/>
<path d="M4780 2965 c0 -4 12 -22 26 -40 l26 -34 -28 -36 c-35 -46 -21 -61 15
-16 l27 33 28 -32 c36 -43 45 -31 11 14 l-27 36 27 36 c35 46 23 58 -13 14
l-28 -33 -20 24 c-20 26 -44 44 -44 34z"/>
<path d="M4996 2954 c-14 -7 -26 -9 -26 -3 0 5 -4 9 -10 9 -6 0 -10 -40 -10
-100 0 -60 4 -100 10 -100 6 0 10 16 10 35 0 39 0 39 34 24 55 -25 119 35 97
92 -17 46 -63 65 -105 43z m62 -20 c40 -28 18 -104 -30 -104 -24 0 -58 35 -58
60 0 22 33 60 53 60 7 0 23 -7 35 -16z"/>
<path d="M5385 2960 c-11 -5 -30 -6 -43 -3 -22 5 -23 4 -20 -67 2 -48 7 -75
16 -78 9 -3 12 13 12 57 0 57 2 62 26 71 46 18 64 -2 64 -70 0 -33 4 -60 10
-60 15 0 13 126 -2 137 -22 17 -42 21 -63 13z"/>
<path d="M5540 2957 c-17 -8 -25 -21 -25 -37 0 -21 8 -27 43 -38 69 -22 48
-59 -27 -46 -27 5 -33 4 -25 -5 6 -7 27 -14 46 -17 28 -5 40 -2 57 15 29 29
15 54 -38 70 -23 6 -41 16 -41 20 0 19 29 31 61 25 23 -5 31 -3 24 4 -18 18
-49 22 -75 9z"/>
<path d="M6087 2963 c-9 -15 5 -153 14 -147 5 3 9 27 9 54 0 41 4 51 27 68 30
22 27 40 -5 23 -13 -7 -22 -7 -29 0 -6 6 -13 7 -16 2z"/>
<path d="M6213 2960 c-34 -14 -28 -20 18 -18 25 1 44 -4 49 -12 13 -21 2 -30
-34 -30 -20 0 -40 -8 -51 -20 -17 -18 -17 -21 -1 -45 17 -26 45 -32 77 -15 13
7 19 7 19 0 0 -5 5 -10 10 -10 14 0 12 113 -2 133 -17 21 -57 29 -85 17z m71
-103 c-8 -21 -52 -33 -66 -19 -17 17 -2 40 29 44 34 4 46 -3 37 -25z"/>
<path d="M6400 2957 c-13 -7 -31 -24 -39 -38 -33 -59 35 -126 100 -99 20 9 27
16 20 23 -7 7 -15 6 -25 -3 -39 -31 -100 25 -76 70 16 29 46 43 69 30 30 -15
49 -13 31 4 -23 22 -53 27 -80 13z"/>
<path d="M3630 2885 c0 -43 4 -75 10 -75 6 0 10 22 10 49 0 44 4 52 33 75 27
22 29 26 12 26 -12 0 -26 -5 -33 -12 -9 -9 -12 -9 -12 0 0 7 -4 12 -10 12 -6
0 -10 -32 -10 -75z"/>
<path d="M3898 2943 c-53 -62 -2 -147 76 -127 54 13 71 72 35 118 -25 32 -87
37 -111 9z m94 -12 c4 -3 10 -18 13 -33 8 -30 -22 -68 -54 -68 -49 0 -70 76
-29 104 21 15 53 13 70 -3z"/>
<path d="M4070 2888 c0 -37 5 -70 10 -73 6 -4 10 13 10 44 0 38 5 56 20 71 43
43 80 13 80 -66 0 -30 5 -54 10 -54 16 0 12 126 -4 139 -7 6 -39 10 -70 9
l-56 -2 0 -68z"/>
<path d="M5156 2944 c-66 -66 27 -177 100 -119 18 15 16 15 -23 10 -35 -6 -45
-3 -65 17 l-23 23 68 3 c37 2 67 7 67 13 0 15 -21 53 -34 61 -19 13 -74 8 -90
-8z m68 0 c9 -4 21 -15 27 -25 9 -17 6 -19 -41 -19 -53 0 -68 18 -32 39 20 12
25 13 46 5z"/>
<path d="M5666 2938 c-30 -43 -15 -101 31 -119 32 -12 83 -2 83 16 0 10 -6 11
-29 2 -23 -9 -34 -7 -55 6 -41 27 -31 37 39 37 72 0 80 9 44 54 -27 35 -90 37
-113 4z m78 2 c14 -5 26 -16 26 -25 0 -11 -12 -15 -50 -15 -54 0 -62 10 -28
34 27 19 21 18 52 6z"/>
<path d="M6707 2942 c-23 -25 -22 -85 1 -105 28 -25 74 -31 97 -12 19 15 19
16 -13 10 -22 -5 -41 -2 -57 9 -39 26 -29 36 35 36 56 0 60 1 60 23 0 13 -8
31 -18 40 -25 23 -85 22 -105 -1z m77 -2 c14 -5 26 -16 26 -25 0 -11 -12 -15
-50 -15 -54 0 -62 10 -28 34 27 19 21 18 52 6z"/>
<path d="M6880 2883 c0 -42 4 -73 10 -73 6 0 10 21 10 46 0 51 14 84 35 84 7
0 16 4 20 9 3 6 -12 9 -35 8 l-40 -1 0 -73z"/>
</g>
</svg>
